<?xml version="1.0"?>
<svg xmlns="http://www.w3.org/2000/svg" height="512px" viewBox="0 -26 512 511" width="512px"><path d="m512 210.5c0-.007812 0-.015625 0-.019531v-19.980469c0-16.542969-13.457031-30-30-30h-35v-50c0-16.542969-13.460938-30-30-30h-35.003906v-29.980469c0-.007812 0-.015625 0-.019531 0-.007812 0-.011719 0-.019531v-19.980469c0-16.542969-13.457032-30-30-30h-216.988282c-5.523437 0-10 4.476562-10 10s4.476563 10 10 10h216.988282c5.511718 0 10 4.484375 10 10v10h-191.996094c-5.523438 0-10 4.476562-10 10 0 16.542969-13.457031 30-30 30h-110v-50c0-5.515625 4.484375-10 10-10h15.007812c5.523438 0 10-4.476562 10-10s-4.476562-10-10-10h-15.007812c-16.542969 0-30 13.457031-30 30v239.992188c0 16.542968 13.457031 30 30 30h35.003906v50c0 16.542968 13.457032 30 29.996094 30h35.003906v50c0 16.542968 13.457032 30 30 30h231.996094c5.523438 0 10-4.476563 10-10 0-5.523438-4.476562-10-10-10h-231.996094c-5.515625 0-10-4.484376-10-10v-169.992188h110c24.144532 0 44.347656-17.207031 48.992188-40h183.003906v209.992188c0 5.515624-4.484375 10-10 10-5.523438 0-10 4.476562-10 10 0 5.523437 4.476562 10 10 10 16.542969 0 30-13.457032 30-30v-219.972657c0-.007812 0-.015625 0-.019531zm-277.035156-50c4.378906-5.820312 7.527344-12.613281 9.03125-20h183.003906v20zm192.035156-50v10h-192c-5.519531 0-10 4.476562-10 10 0 16.542969-13.457031 30-29.996094 30h-110v-50c0-5.515625 4.484375-10 9.996094-10h322c5.511719 0 10 4.484375 10 10zm-248.003906-50h183v20h-192.035156c4.378906-5.816406 7.527343-12.613281 9.035156-20zm-148.996094 219.992188c-5.515625 0-10-4.484376-10-10v-169.992188h46.722656c-1.109375 3.128906-1.71875 6.492188-1.71875 10v169.992188zm65 80c-5.511719 0-9.996094-4.484376-9.996094-10v-169.992188h46.71875c-1.109375 3.128906-1.71875 6.492188-1.71875 10v169.992188zm205.003906-159.992188c-5.523437 0-10 4.476562-10 10 0 16.542969-13.457031 30-30 30h-110v-50c0-5.515625 4.484375-10 10-10h321.996094c5.515625 0 10 4.484375 10 10v10zm0 0" fill="#FFFFFF"/><path d="m220.007812 200.5h-.007812c-5.523438 0-9.996094 4.476562-9.996094 10s4.480469 10 10.003906 10c5.519532 0 10-4.476562 10-10s-4.480468-10-10-10zm0 0" fill="#FFFFFF"/><path d="m260.007812 200.5h-.007812c-5.523438 0-9.996094 4.476562-9.996094 10s4.480469 10 10.003906 10c5.523438 0 10-4.476562 10-10s-4.476562-10-10-10zm0 0" fill="#FFFFFF"/><path d="m180.007812 200.5h-.007812c-5.523438 0-9.996094 4.476562-9.996094 10s4.480469 10 10.003906 10c5.519532 0 10-4.476562 10-10s-4.480468-10-10-10zm0 0" fill="#FFFFFF"/><path d="m155.003906 120.5h-.003906c-5.523438 0-10 4.476562-10 10s4.480469 10 10.003906 10c5.523438 0 10-4.476562 10-10s-4.476562-10-10-10zm0 0" fill="#FFFFFF"/><path d="m195.007812 120.5h-.007812c-5.523438 0-9.996094 4.476562-9.996094 10s4.480469 10 10.003906 10c5.519532 0 10-4.476562 10-10s-4.480468-10-10-10zm0 0" fill="#FFFFFF"/><path d="m115.003906 120.5h-.007812c-5.523438 0-9.996094 4.476562-9.996094 10s4.480469 10 10.003906 10c5.523438 0 10-4.476562 10-10s-4.476562-10-10-10zm0 0" fill="#FFFFFF"/><path d="m90.003906 60.5c5.523438 0 10-4.476562 10-10s-4.476562-10-10-10h-.007812c-5.519532 0-9.996094 4.476562-9.996094 10s4.480469 10 10.003906 10zm0 0" fill="#FFFFFF"/><path d="m130.003906 60.5c5.523438 0 10-4.476562 10-10s-4.476562-10-10-10h-.007812c-5.519532 0-9.996094 4.476562-9.996094 10s4.484375 10 10.003906 10zm0 0" fill="#FFFFFF"/><path d="m49.996094 40.5c-5.523438 0-9.996094 4.476562-9.996094 10s4.480469 10 10.003906 10c5.519532 0 10-4.476562 10-10s-4.480468-10-10-10zm0 0" fill="#FFFFFF"/><path d="m327.921875 305.929688-32.433594 81.761718c-2.035156 5.132813.476563 10.945313 5.609375 12.980469 1.210938.480469 2.457032.707031 3.683594.707031 3.980469 0 7.742188-2.390625 9.300781-6.3125l32.429688-81.765625c2.035156-5.132812-.476563-10.945312-5.605469-12.980469-5.136719-2.039062-10.949219.472657-12.984375 5.609376zm0 0" fill="#FFFFFF"/><path d="m269.644531 302.542969c-3.90625-3.90625-10.238281-3.90625-14.144531 0l-40.878906 40.882812c-3.90625 3.902344-3.90625 10.234375 0 14.140625l40.878906 40.882813c1.953125 1.953125 4.511719 2.929687 7.070312 2.929687 2.558594 0 5.117188-.976562 7.070313-2.929687 3.90625-3.90625 3.90625-10.238281 0-14.144531l-33.808594-33.808594 33.808594-33.808594c3.90625-3.90625 3.90625-10.238281.003906-14.144531zm0 0" fill="#FFFFFF"/><path d="m372.359375 398.449219c1.953125 1.953125 4.511719 2.929687 7.070313 2.929687 2.558593 0 5.117187-.976562 7.070312-2.929687l40.882812-40.882813c3.90625-3.902344 3.90625-10.234375 0-14.140625l-40.882812-40.882812c-3.902344-3.902344-10.234375-3.902344-14.140625 0-3.90625 3.90625-3.90625 10.238281 0 14.144531l33.808594 33.808594-33.808594 33.808594c-3.90625 3.90625-3.90625 10.238281 0 14.144531zm0 0" fill="#FFFFFF"/><path d="m90.011719 20.5c5.523437 0 10-4.476562 10-10s-4.476563-10-10-10h-.007813c-5.523437 0-9.996094 4.476562-9.996094 10s4.480469 10 10.003907 10zm0 0" fill="#FFFFFF"/><path d="m437.003906 440.492188h-.007812c-5.523438 0-9.996094 4.476562-9.996094 10 0 5.523437 4.480469 10 10.003906 10 5.519532 0 10-4.476563 10-10 0-5.523438-4.480468-10-10-10zm0 0" fill="#FFFFFF"/></svg>
