<?xml version="1.0"?>
<svg xmlns="http://www.w3.org/2000/svg" xmlns:xlink="http://www.w3.org/1999/xlink" viewBox="0 0 512 512" width="512" height="512"><defs><linearGradient id="linear-gradient" x1="40" y1="256" x2="464" y2="256" gradientUnits="userSpaceOnUse"><stop offset="0" stop-color="#35e0d1"/><stop offset="1" stop-color="#f07ff1"/></linearGradient></defs><g id="gradient"><path d="M280,256V184a8,8,0,0,0-8-8H256V160a16.019,16.019,0,0,0-16-16H208a16.019,16.019,0,0,0-16,16v16H176a8,8,0,0,0-8,8v72a8,8,0,0,0,8,8h96A8,8,0,0,0,280,256Zm-72-96h32v16H208Zm-24,32h80v11.056l-13.268,6.633a59.771,59.771,0,0,1-53.464,0L184,203.056Zm0,56V220.944L190.111,224a75.779,75.779,0,0,0,67.778,0L264,220.944V248Zm267.887-3.587L408,219.355V96a8,8,0,0,0-8-8H360V64a8,8,0,0,0-8-8H104a8,8,0,0,0-8,8V219.355L52.11,244.414A24.089,24.089,0,0,0,40,265.28V448a8,8,0,0,0,8,8h56a8,8,0,0,0,8-8V376H304a24.039,24.039,0,0,0,22.624-16H392v88a8,8,0,0,0,8,8h56a8,8,0,0,0,8-8V265.28A24.088,24.088,0,0,0,451.887,244.413ZM328,140.944l16-8v22.112l-16,8Zm0,40,16-8v22.112l-16,8ZM344,72v43.056l-16,8V72ZM96,440H56V265.28a7.947,7.947,0,0,1,4.047-6.973L96,237.78v24.54a8,8,0,0,0,12.739,6.445l17.82-13.1a8.045,8.045,0,0,1,12.8,6.419,8.222,8.222,0,0,1-3.339,6.544l-19.3,14.119a8,8,0,0,0-3.185,5.24A46.18,46.18,0,0,1,98.686,315.46,8,8,0,0,0,96,321.44V440Zm208-80H112V324.882a62.267,62.267,0,0,0,16.736-31.107L145.522,281.5c.033-.023.065-.047.1-.072a23.986,23.986,0,0,0,5.107-33.469c-.02-.027-.039-.054-.06-.081a24.152,24.152,0,0,0-33.565-5.12l-5.1,3.751V72H312V352A8.009,8.009,0,0,1,304,360Zm24-139.056,27.578-13.789A8,8,0,0,0,360,200V104h32V246.506l-5.121-3.766a24.148,24.148,0,0,0-33.545,5.135c-.021.027-.04.054-.06.081a23.986,23.986,0,0,0,5.107,33.469c.032.025.064.049.1.072l16.786,12.278A62.267,62.267,0,0,0,392,324.882V344H328ZM448,440H408s-.009-87.706-.011-87.78.011-.146.011-.22V321.44a8,8,0,0,0-2.686-5.98,46.18,46.18,0,0,1-14.847-27.477,8,8,0,0,0-3.185-5.24l-19.3-14.119a8.22,8.22,0,0,1-3.339-6.544,8.045,8.045,0,0,1,12.781-6.435l17.84,13.12A8,8,0,0,0,408,262.32V237.78l35.95,20.526A7.947,7.947,0,0,1,448,265.28ZM280,296h16v16H280Zm-16,16H216V296h48Zm-24,16h56v16H240Z" style="fill:url(#linear-gradient)"/></g></svg>
