<svg height="512" viewBox="0 0 64 64" width="512" xmlns="http://www.w3.org/2000/svg"><path d="m43 57h10v4h-10z" fill="#394d5c" transform="matrix(-1 0 0 -1 96 118)"/><path d="m44 9h12v10h-12z" fill="#ffd782" transform="matrix(-1 0 0 -1 100 28)"/><path d="m44 23h12v18h-12z" fill="#fcd6e7" transform="matrix(-1 0 0 -1 100 64)"/><path d="m38 23h6v4h-6z" fill="#eb8cb3"/><path d="m47 41h6v16h-6z" fill="#cd4b4c"/><path d="m48 27v3l-9 3v4l13-4v-6a2 2 0 0 0 -2-2 2 2 0 0 0 -2 2z" fill="#eb8cb3"/><path d="m47 12h2v2h-2z" fill="#4e616d"/><path d="m53 5-3-2h-8v6h14 3v-4z" fill="#cd4b4c"/><path d="m55 2h2v3h-2z" fill="#eb9198"/><circle cx="35" cy="35" fill="#ffd782" r="2"/><path d="m6 3h24v38h-24z" fill="#87cee9"/><path d="m10 41h4v20h-4z" fill="#6f8099"/><path d="m22 41h4v20h-4z" fill="#6f8099"/><path d="m25.757 28h8.485v2h-8.485z" fill="#eb9198" transform="matrix(.707 -.707 .707 .707 -11.719 29.707)"/><path d="m33.964 20.5h7.071v2h-7.071z" fill="#eb9198" transform="matrix(.707 -.707 .707 .707 -4.219 32.814)"/><g fill="#ffd782"><circle cx="18" cy="13" r="3"/><path d="m22.707 23.707a1 1 0 0 1 -.707-.293l-3-3 1.414-1.414 2.293 2.293 2.293-2.293 1.414 1.414-3 3a1 1 0 0 1 -.707.293z"/><path d="m13.586 28-3-3a1 1 0 0 1 0-1.414l5-5 1.414 1.414-4.293 4.293 2.293 2.293z"/></g><path d="m22 36h-8l2-10h4z" fill="#cd4b4c"/><path d="m9 7h2" fill="#cd4b4c"/><path d="m9 6h2v2h-2z" fill="#be2821"/><path d="m10 10h2v2h-2z" fill="#be2821"/><path d="m38 61h-6l-1-8h8z" fill="#fcd6e7"/><path d="m40 53h-2v-1a3 3 0 0 0 -6 0v1h-2v-1a5 5 0 0 1 10 0z" fill="#c9874b"/><path d="m20 26h-4l-1-8h6z" fill="#eb9198"/><circle cx="34" cy="25" fill="#ffd782" r="2"/></svg>