<?xml version="1.0"?>
<svg xmlns="http://www.w3.org/2000/svg" viewBox="0 0 64 64" width="512" height="512"><g id="flat"><path d="M38,22h6.589a6,6,0,0,0,5.727-4.21L53.469,7.7a3,3,0,1,0-4.193.749L45,17H17.325a6,6,0,0,0-5.693,4.1L7.591,33.228a2.966,2.966,0,0,0-.548,2.278A3,3,0,0,0,13,35a2.991,2.991,0,0,0-1.276-2.449L17,22h8L17,46,7,46.714V51H22l4-11h2L43.261,57.8,47,55,34,37V34Z" style="fill:#fec9a3"/><path d="M38.039,17H35.882l-.591,1.182a3.289,3.289,0,0,1-6.133-.673L29.029,17H22l-1,5h4L21,34H34l4-12h3l1-5Z" style="fill:#4398d1"/><path d="M21.6,32.19,21,34H34l4-12h3l1-5H40.578A36.005,36.005,0,0,1,21.6,32.19Z" style="fill:#348cc7"/><path d="M31.784,13h0a3.923,3.923,0,0,1-3.846-4.692l.431-2.155A3.924,3.924,0,0,1,32.216,3h0a3.923,3.923,0,0,1,3.846,4.692l-.431,2.155A3.924,3.924,0,0,1,31.784,13Z" style="fill:#fec9a3"/><path d="M46,61l6.221-5.332a1.315,1.315,0,0,0-1.344-2.219L47,55l-3.739,2.8Z" style="fill:#4398d1"/><path d="M3,47v7.807a1.193,1.193,0,0,0,2.3.443L7,51V46.714Z" style="fill:#4398d1"/><polygon points="34 37 34 34 25 34 21 34 17.667 44 21 44 24.545 44 26 40 28 40 32.154 44.846 36.516 40.484 34 37" style="fill:#666"/><polygon points="25 34 23.776 34 20 44 22.159 44 25.935 34 25 34" style="fill:#545454"/><path d="M25.631,28.167,23.816,34h2.1l1.636-5.259a5.843,5.843,0,0,0-2.367-6.573,1.015,1.015,0,0,0-.208-.083l-.647,1.941A3.846,3.846,0,0,1,25.631,28.167Z" style="fill:#54b6f7"/></g></svg>
