<svg height="512pt" viewBox="-20 0 512 512" width="512pt" xmlns="http://www.w3.org/2000/svg"><path d="m219.832031 512c-7.777343 0-14.761719-5.441406-16.414062-13.359375-7.65625-36.648437 1.820312-98.105469 3.882812-107.886719 1.914063-9.074218 10.816407-14.875 19.890625-12.964844 9.074219 1.914063 14.875 10.820313 12.964844 19.890626-2.40625 11.410156-9.746094 65.984374-3.871094 94.09375 1.894532 9.078124-3.925781 17.972656-13 19.867187-1.160156.242187-2.3125.359375-3.453125.359375zm0 0" fill="#efd176"/><path d="m321.636719 512c-1.140625 0-2.292969-.117188-3.453125-.359375-9.078125-1.894531-14.894532-10.789063-13-19.867187 5.875-28.105469-1.464844-82.683594-3.871094-94.09375-1.910156-9.070313 3.894531-17.976563 12.964844-19.890626 9.082031-1.914062 17.976562 3.894532 19.890625 12.964844 2.0625 9.785156 11.539062 71.242188 3.882812 107.890625-1.65625 7.914063-8.636719 13.355469-16.414062 13.355469zm0 0" fill="#efd176"/><path d="m406.957031 327.703125c-20.316406 0-40.644531-9.75-55.335937-28.210937-5.773438-7.253907-4.570313-17.816407 2.683594-23.589844 7.257812-5.773438 17.820312-4.570313 23.589843 2.6875 14.875 18.695312 34.007813 18.503906 46.371094 10.015625 14.285156-9.804688 23.5625-33.859375 2.703125-69.382813-4.695312-7.996094-2.019531-18.285156 5.972656-22.980468 7.992188-4.691407 18.28125-2.019532 22.976563 5.976562 30.472656 51.882812 15.601562 94.675781-12.648438 114.066406-11.203125 7.691406-23.757812 11.417969-36.3125 11.417969zm0 0" fill="#efd176"/><path d="m119.144531 331.339844c-1.8125 0-3.621093-.058594-5.429687-.171875-20.128906-1.273438-49.59375-10.261719-75.679688-45.839844-5.484375-7.476563-3.867187-17.984375 3.609375-23.464844 7.476563-5.484375 17.984375-3.867187 23.464844 3.613281 14.785156 20.160157 31.851563 30.988282 50.730469 32.183594 17.441406 1.101563 35.652344-6.4375 48.691406-20.175781 6.382812-6.726563 17.011719-7.003906 23.734375-.621094 6.726563 6.382813 7.003906 17.007813.621094 23.734375-18.496094 19.484375-44.222657 30.742188-69.742188 30.742188zm0 0" fill="#efd176"/><path d="m224.582031 75.234375c23.617188 23.621094 27.664063 60.394531 28.070313 79.265625.144531 6.859375-5.460938 12.464844-12.320313 12.316406-18.871093-.402344-55.644531-4.449218-79.265625-28.070312-23.617187-23.617188-27.667968-60.390625-28.070312-79.265625-.144532-6.859375 5.460937-12.464844 12.320312-12.316407 18.871094.402344 55.644532 4.449219 79.265625 28.070313zm0 0" fill="#8ee2cf"/><path d="m206.988281 128.652344c-1.917969 0-3.839843-.730469-5.300781-2.195313l-28.332031-28.328125c-2.925781-2.929687-2.925781-7.679687 0-10.605468 2.929687-2.929688 7.679687-2.929688 10.605469 0l28.332031 28.328124c2.929687 2.929688 2.929687 7.675782 0 10.605469-1.464844 1.464844-3.386719 2.195313-5.304688 2.195313zm0 0" fill="#6fce91"/><path d="m316.886719 75.234375c-23.621094 23.621094-27.667969 60.394531-28.070313 79.265625-.148437 6.859375 5.460938 12.464844 12.316406 12.316406 18.875-.402344 55.644532-4.449218 79.265626-28.070312 23.621093-23.617188 27.667968-60.390625 28.074218-79.265625.144532-6.859375-5.460937-12.464844-12.320312-12.316407-18.871094.402344-55.644532 4.449219-79.265625 28.070313zm0 0" fill="#8ee2cf"/><path d="m334.480469 128.652344c-1.917969 0-3.839844-.730469-5.304688-2.195313-2.929687-2.929687-2.929687-7.679687 0-10.605469l28.328125-28.328124c2.929688-2.929688 7.679688-2.929688 10.609375 0 2.925781 2.929687 2.925781 7.675781 0 10.605468l-28.328125 28.328125c-1.464844 1.464844-3.386718 2.195313-5.304687 2.195313zm0 0" fill="#6fce91"/><path d="m315.644531 87.207031c0 33.402344-23.140625 62.269531-36.199219 75.898438-4.746093 4.953125-12.675781 4.953125-17.421874 0-13.058594-13.628907-36.199219-42.496094-36.199219-75.898438 0-33.402343 23.140625-62.269531 36.199219-75.898437 4.746093-4.953125 12.675781-4.953125 17.421874 0 13.058594 13.628906 36.199219 42.496094 36.199219 75.898437zm0 0" fill="#8ee2cf"/><path d="m270.734375 114.738281c-4.140625 0-7.5-3.359375-7.5-7.5v-40.0625c0-4.140625 3.359375-7.5 7.5-7.5 4.144531 0 7.5 3.359375 7.5 7.5v40.0625c0 4.140625-3.359375 7.5-7.5 7.5zm0 0" fill="#6fce91"/><path d="m270.734375 135.804688c69.292969 0 118.828125 54.574218 125.464844 137.214843 6.910156 85.96875-25.429688 150.089844-125.464844 150.089844-100.039063 0-132.375-64.121094-125.46875-150.089844 6.640625-82.640625 56.175781-137.214843 125.46875-137.214843zm0 0" fill="#f7ef87"/><g fill="#efd176"><path d="m229.3125 143.007812c-47.050781 17.371094-78.824219 65.003907-84.046875 130.011719-6.886719 85.726563 25.257813 149.726563 124.640625 150.082031-120.625-73.800781-88.28125-206.960937-40.59375-280.09375zm0 0"/><path d="m282.914062 248.558594c-1.917968 0-3.835937-.730469-5.300781-2.195313l-6.878906-6.878906-6.878906 6.878906c-2.929688 2.929688-7.679688 2.929688-10.609375 0-2.925782-2.929687-2.925782-7.679687 0-10.605469l12.183594-12.183593c1.40625-1.410157 3.316406-2.199219 5.304687-2.199219s3.898437.792969 5.304687 2.199219l12.183594 12.183593c2.925782 2.925782 2.925782 7.675782-.003906 10.605469-1.464844 1.464844-3.382812 2.195313-5.304688 2.195313zm0 0"/><path d="m352.566406 248.558594c-1.917968 0-3.839844-.730469-5.304687-2.195313l-6.878907-6.878906-6.878906 6.878906c-2.929687 2.929688-7.679687 2.929688-10.605468 0-2.929688-2.929687-2.929688-7.679687 0-10.605469l12.179687-12.183593c2.933594-2.929688 7.679687-2.929688 10.609375 0l12.183594 12.183593c2.925781 2.925782 2.925781 7.675782 0 10.605469-1.464844 1.464844-3.386719 2.195313-5.304688 2.195313zm0 0"/><path d="m213.265625 248.558594c-1.917969 0-3.835937-.730469-5.300781-2.195313l-6.878906-6.878906-6.878907 6.878906c-2.929687 2.929688-7.679687 2.929688-10.609375 0-2.929687-2.929687-2.929687-7.679687 0-10.605469l12.183594-12.183593c1.40625-1.410157 3.316406-2.199219 5.304688-2.199219 1.988281 0 3.894531.789062 5.300781 2.199219l12.183593 12.183593c2.929688 2.925782 2.929688 7.675782 0 10.605469-1.464843 1.464844-3.382812 2.195313-5.304687 2.195313zm0 0"/><path d="m317.742188 384.445312c-1.917969 0-3.839844-.734374-5.304688-2.199218l-6.878906-6.878906-6.878906 6.878906c-2.929688 2.929687-7.679688 2.929687-10.605469 0-2.929688-2.929688-2.929688-7.675782 0-10.605469l12.183593-12.183594c2.925782-2.929687 7.675782-2.929687 10.605469 0l12.179688 12.183594c2.933593 2.929687 2.933593 7.675781.003906 10.605469-1.46875 1.464844-3.386719 2.199218-5.304687 2.199218zm0 0"/><path d="m223.726562 384.445312c-1.917968 0-3.839843-.734374-5.304687-2.199218-2.925781-2.929688-2.925781-7.675782 0-10.605469l12.183594-12.183594c2.929687-2.929687 7.679687-2.929687 10.605469 0l12.183593 12.183594c2.929688 2.929687 2.929688 7.675781 0 10.605469-2.929687 2.929687-7.675781 2.929687-10.605469 0l-6.878906-6.878906-6.878906 6.878906c-1.464844 1.464844-3.386719 2.199218-5.304688 2.199218zm0 0"/></g><path d="m219.785156 320.253906c0-13.101562-13.339844-23.722656-29.792968-23.722656-16.453126 0-29.792969 10.621094-29.792969 23.722656 0 13.105469 13.339843 23.726563 29.792969 23.726563 16.453124 0 29.792968-10.621094 29.792968-23.726563zm0 0" fill="#eda1ab"/><path d="m381.269531 320.253906c0-13.101562-13.339843-23.722656-29.792969-23.722656-16.453124 0-29.792968 10.621094-29.792968 23.722656 0 13.105469 13.339844 23.726563 29.792968 23.726563 16.453126 0 29.792969-10.621094 29.792969-23.726563zm0 0" fill="#eda1ab"/><path d="m221.535156 301.9375c-4.140625 0-7.5-3.359375-7.5-7.5 0-3.683594-2.996094-6.679688-6.679687-6.679688-3.6875 0-6.683594 2.996094-6.683594 6.679688 0 4.140625-3.355469 7.5-7.5 7.5-4.140625 0-7.5-3.359375-7.5-7.5 0-11.953125 9.726563-21.679688 21.683594-21.679688 11.953125 0 21.679687 9.726563 21.679687 21.679688 0 4.140625-3.355468 7.5-7.5 7.5zm0 0" fill="#4e5660"/><path d="m348.292969 301.9375c-4.140625 0-7.5-3.359375-7.5-7.5 0-3.683594-2.996094-6.679688-6.679688-6.679688-3.683593 0-6.679687 2.996094-6.679687 6.679688 0 4.140625-3.359375 7.5-7.5 7.5-4.144532 0-7.5-3.359375-7.5-7.5 0-11.953125 9.722656-21.679688 21.679687-21.679688 11.953125 0 21.679688 9.726563 21.679688 21.679688 0 4.140625-3.355469 7.5-7.5 7.5zm0 0" fill="#4e5660"/><path d="m270.734375 325.363281c-7.933594 0-15.476563-3.433593-20.695313-9.421875-2.722656-3.125-2.394531-7.863281.726563-10.582031 3.121094-2.722656 7.859375-2.398437 10.582031.726563 2.371094 2.71875 5.792969 4.277343 9.386719 4.277343 3.597656 0 7.019531-1.558593 9.386719-4.277343 2.722656-3.125 7.457031-3.449219 10.582031-.726563 3.125 2.71875 3.449219 7.457031.730469 10.582031-5.222656 5.988282-12.765625 9.421875-20.699219 9.421875zm0 0" fill="#4e5660"/><path d="m215.875 175.160156h-27.160156c-11.40625 0-19.910156 10.523438-17.519532 21.679688l1.503907 7.011718c2.527343 11.789063 12.945312 20.210938 25.003906 20.210938h9.183594c12.058593 0 22.476562-8.421875 25.003906-20.210938l1.503906-7.011718c2.390625-11.15625-6.113281-21.679688-17.519531-21.679688zm0 0" fill="#4e5660"/><path d="m312.277344 188.699219c-.339844 0-.679688-.019531-1.023438-.066407-9.8125-1.339843-23.285156-2.875-40.519531-2.875-17.230469 0-30.707031 1.535157-40.519531 2.875-4.105469.554688-7.886719-2.316406-8.445313-6.417968-.558593-4.105469 2.316407-7.886719 6.421875-8.445313 10.28125-1.402343 24.410156-3.011719 42.542969-3.011719s32.261719 1.609376 42.542969 3.011719c4.105468.558594 6.980468 4.339844 6.421875 8.445313-.515625 3.757812-3.730469 6.484375-7.421875 6.484375zm0 0" fill="#e26e7e"/><path d="m206.886719 231.5625h-9.183594c-15.492187 0-29.089844-10.992188-32.339844-26.136719l-1.503906-7.015625c-1.617187-7.542968.238281-15.308594 5.085937-21.308594 4.851563-6 12.054688-9.441406 19.769532-9.441406h27.15625c7.714844 0 14.921875 3.441406 19.769531 9.441406 4.847656 5.996094 6.703125 13.765626 5.085937 21.308594l-1.503906 7.011719c-3.246094 15.148437-16.847656 26.140625-32.335937 26.140625zm-18.171875-48.902344c-3.160156 0-6.113282 1.410156-8.101563 3.871094-1.988281 2.457031-2.75 5.644531-2.085937 8.734375l1.503906 7.015625c1.777344 8.277344 9.207031 14.285156 17.671875 14.285156h9.183594c8.464843 0 15.898437-6.007812 17.671875-14.285156l1.503906-7.015625c.664062-3.089844-.097656-6.273437-2.085938-8.734375-1.988281-2.460938-4.941406-3.871094-8.101562-3.871094zm0 0" fill="#e26e7e"/><path d="m325.59375 175.160156h27.160156c11.40625 0 19.914063 10.523438 17.519532 21.679688l-1.503907 7.011718c-2.527343 11.789063-12.945312 20.210938-25.003906 20.210938h-9.183594c-12.058593 0-22.476562-8.421875-25.003906-20.210938l-1.503906-7.011718c-2.394531-11.15625 6.109375-21.679688 17.519531-21.679688zm0 0" fill="#4e5660"/><path d="m343.765625 231.5625h-9.183594c-15.488281 0-29.089843-10.992188-32.339843-26.136719l-1.503907-7.015625c-1.617187-7.542968.238281-15.308594 5.085938-21.308594 4.851562-6 12.054687-9.441406 19.769531-9.441406h27.160156c7.714844 0 14.917969 3.441406 19.765625 9.441406 4.851563 6 6.703125 13.765626 5.085938 21.308594l-1.503907 7.015625c-3.246093 15.144531-16.847656 26.136719-32.335937 26.136719zm-18.171875-48.902344c-3.160156 0-6.113281 1.410156-8.101562 3.871094-1.988282 2.457031-2.75 5.644531-2.085938 8.734375l1.503906 7.015625c1.773438 8.277344 9.207032 14.28125 17.671875 14.28125h9.183594c8.464844 0 15.894531-6.003906 17.671875-14.28125l1.503906-7.015625c.664063-3.089844-.097656-6.277344-2.085937-8.734375-1.988281-2.460938-4.941407-3.871094-8.101563-3.871094zm0 0" fill="#e26e7e"/><path d="m307.734375 150.871094c5.738281-1.109375 9.878906-6.128906 9.878906-11.96875v-38.300782c9.707031-1.082031 19.101563-5.671874 26.105469-13.796874 13.3125-15.445313 13.066406-37.976563-.550781-53.148438-8.976563-10-21.644531-14.40625-33.886719-13.238281-1.960938.1875-3.839844-.710938-4.929688-2.355469-7.21875-10.882812-19.578124-18.0625-33.617187-18.0625s-26.398437 7.179688-33.617187 18.0625c-1.089844 1.640625-2.96875 2.539062-4.929688 2.351562-12.242188-1.164062-24.914062 3.242188-33.886719 13.242188-13.621093 15.171875-13.863281 37.703125-.550781 53.148438 7.003906 8.125 16.394531 12.714843 26.105469 13.796874v38.300782c0 5.839844 4.140625 10.859375 9.875 11.96875 24.441406 4.722656 49.5625 4.722656 74.003906 0zm0 0" fill="#fcf2d0"/><path d="m243.851562 76.046875c-18.582031-11.921875-23.976562-36.890625-19.707031-55.578125-9.558593.992188-18.832031 5.375-25.84375 13.1875-13.621093 15.171875-13.863281 37.703125-.550781 53.148438 7.003906 8.125 16.394531 12.714843 26.105469 13.796874v38.300782c0 5.839844 4.140625 10.859375 9.875 11.96875 10.199219 1.972656 20.511719 3.105468 30.84375 3.433594-13.53125-17.132813-13.992188-46.117188-13.796875-65.144532.050781-5.261718-2.5-10.273437-6.925782-13.113281zm0 0" fill="#f6e3a3"/><path d="m307.734375 150.871094c5.738281-1.109375 9.878906-6.128906 9.878906-11.96875v-13.460938c-16.144531 2.992188-34.699219 4.667969-46.878906 4.667969s-30.734375-1.679687-46.878906-4.667969v13.460938c0 5.839844 4.140625 10.859375 9.875 11.96875 24.441406 4.722656 49.5625 4.722656 74.003906 0zm0 0" fill="#8eafe2"/><path d="m223.855469 138.902344c0 5.839844 4.140625 10.859375 9.875 11.96875 10.199219 1.972656 20.511719 3.105468 30.84375 3.433594-5.433594-6.882813-8.761719-15.671876-10.78125-24.964844-9.570313-.769532-20.191407-2.09375-29.9375-3.898438zm0 0" fill="#6a96d7"/><path d="m83.339844 102.988281h-66.292969c-10.46875 0-18.464844 9.355469-16.835937 19.699219l9.855468 62.535156c1.308594 8.285156 8.449219 14.390625 16.839844 14.390625h6.5v102.050781c0 9.273438 7.515625 16.789063 16.789062 16.789063 9.273438 0 16.789063-7.515625 16.789063-16.789063v-102.050781h6.5c8.390625 0 15.53125-6.105469 16.839844-14.390625l9.855469-62.535156c1.628906-10.34375-6.367188-19.699219-16.839844-19.699219zm0 0" fill="#8eafe2"/><path d="m36.265625 175.253906c-3.757813 0-7-2.816406-7.441406-6.640625l-3.988281-34.535156c-.472657-4.117187 2.476562-7.835937 6.59375-8.3125 4.109374-.472656 7.835937 2.476563 8.308593 6.589844l3.988281 34.539062c.472657 4.113281-2.476562 7.835938-6.59375 8.308594-.289062.035156-.582031.050781-.867187.050781zm0 0" fill="#6a96d7"/><path d="m64.125 175.253906c-.289062 0-.578125-.015625-.871094-.050781-4.113281-.472656-7.0625-4.195313-6.589844-8.308594l3.988282-34.539062c.472656-4.113281 4.195312-7.0625 8.308594-6.589844 4.117187.476563 7.066406 4.195313 6.59375 8.3125l-3.988282 34.535156c-.441406 3.824219-3.683594 6.640625-7.441406 6.640625zm0 0" fill="#6a96d7"/></svg>