<svg height="512" viewBox="0 0 64 64" width="512" xmlns="http://www.w3.org/2000/svg"><path d="m44.078 41.391a3.984 3.984 0 0 1 -.436-3.155 13.921 13.921 0 0 0 .358-3.236c0-5.08-3.824-8.79-9-10h-6c-5.176 1.21-9 4.92-9 10a13.921 13.921 0 0 0 .358 3.236 3.984 3.984 0 0 1 -.436 3.155 11.827 11.827 0 0 0 -1.922 6.609c0 7.025 6.268 13 14 13s14-5.975 14-13a11.827 11.827 0 0 0 -1.922-6.609z" fill="#f9bb4b"/><path d="m28 3h8v12h-8z" fill="#f9bb4b"/><g fill="#cc820a"><path d="m25 6h3v2h-3z"/><path d="m25 10h3v2h-3z"/><path d="m36 6h3v2h-3z"/><path d="m36 10h3v2h-3z"/><path d="m29 15h6v22.176h-6z"/></g><path d="m32 58a10.561 10.561 0 0 1 -10.992-8.876l1.984-.251c.038.291 1.03 7.127 9.008 7.127z" fill="#fff69a"/><path d="m21 45h2v2h-2z" fill="#fff69a"/><path d="m31 6h2v2h-2z" fill="#fff69a"/><path d="m31 10h2v2h-2z" fill="#fff69a"/><path d="m15 24.277v-10.664l-11 3.666v9a2 2 0 1 0 2 0v-3.558l7-2.333v3.889a2 2 0 1 0 2 0zm-9-3.665v-1.891l7-2.334v1.892z" fill="#d9176c"/><path d="m55 10.659v-6.176l-9 3.858v10.936a2 2 0 1 0 2 0v-5.618zm-7-1 5-2.142v1.824l-5 2.142z" fill="#d9176c"/><path d="m48.447 37.895-.894-1.79 1.447-.723v-5.202l7-1.4v6.838l-2.553 1.277-.894-1.79 1.447-.723v-3.162l-3 .6v4.798z" fill="#8ec13f"/><path d="m17.447 11.895-.894-1.79 1.447-.723v-4l2.553-1.277.894 1.79-1.447.723v4z" fill="#8ec13f"/><path d="m20 15h2v2h-2z" fill="#f98c96"/><path d="m13 33h2v2h-2z" fill="#f98c96"/><path d="m39 17h2v2h-2z" fill="#f98c96"/><path d="m53 24h2v2h-2z" fill="#f98c96"/><circle cx="32" cy="42" fill="#fff69a" r="7"/><circle cx="32" cy="42" fill="#cc820a" r="3"/></svg>