<svg id="Layer_1" enable-background="new 0 0 512.101 512.101" height="512" viewBox="0 0 512.101 512.101" width="512" xmlns="http://www.w3.org/2000/svg"><path d="m315.75 345.901v151.2h-30v-151.2l15-9.3z" fill="#ffe6b3"/><path d="m315.75 345.901v151.2h-15v-160.5z" fill="#ffca80"/><path d="m421.651 107.701-29.701 62.699-13.499-6.299-13.5-6.301 29.399-62.999 13.5 6.299z" fill="#766e6e"/><path d="m421.651 107.701-29.701 62.699-13.499-6.299 29.399-63.001z" fill="#5b5555"/><path d="m255.75 164.101-50.4 89.7c-16.5 9.901-35.4 15.3-54.6 15.3-57.9 0-105-47.1-105-105s47.1-105 105-105 105 47.1 105 105z" fill="#90cc1c"/><path d="m255.75 164.101-50.4 89.7c-16.5 9.901-35.4 15.3-54.6 15.3v-210c57.9 0 105 47.1 105 105z" fill="#6b0"/><path d="m225.45 156.901-41.999 74.7c-10.201 4.799-21.301 7.5-32.701 7.5-41.4 0-75-33.6-75-75s33.6-75 75-75c39 0 71.1 29.7 74.7 67.8z" fill="#ffda2d"/><path d="m225.45 156.901-41.999 74.7c-10.201 4.799-21.301 7.5-32.701 7.5v-150c39 0 71.1 29.7 74.7 67.8z" fill="#fdbf00"/><path d="m431.249 234.6-115.499 111.301h-30l-115.499-111.301z" fill="#8cf2f2"/><path d="m431.249 234.6-115.499 111.301h-15v-111.301z" fill="#57d9d4"/><path d="m225.75 482.101h150v30h-150z" fill="#fff7cc"/><path d="m300.75 482.101h75v30h-75z" fill="#ffe6b3"/><path d="m466.351 12.601-19.201 40.8-13.8-6.601-13.501-6.299 19.201-40.501 13.5 6.301z" fill="#766e6e"/><path d="m466.351 12.601-19.201 40.8-13.8-6.601 19.2-40.499z" fill="#5b5555"/><path d="m439.951 33.301c-22.5-10.501-49.2-.901-60 21.599-10.501 22.5-.901 49.501 21.599 60 6.301 2.999 12.601 4.2 19.2 4.2 16.8 0 33.3-9.6 40.8-25.8 10.501-22.499.901-49.499-21.599-59.999z" fill="#ff9100"/><path d="m461.55 93.301c-7.5 16.199-24 25.8-40.8 25.8-6.599 0-12.9-1.201-19.2-4.2l38.401-81.599c22.5 10.499 32.1 37.499 21.599 59.999z" fill="#ff641a"/><path d="m135.75 149.101v45c0 24.899 20.099 45 45 45h240c24.901 0 45-20.101 45-45v-45z" fill="#fff7cc"/><path d="m465.75 149.101v45c0 24.899-20.099 45-45 45h-120v-90z" fill="#ffe6b3"/></svg>