<svg height="512pt" viewBox="0 -63 512 512" width="512pt" xmlns="http://www.w3.org/2000/svg"><path d="m502.851562 128.808594-22.851562-22.851563c-17.671875-17.671875-46.328125-17.671875-64 0s-46.328125 17.671875-64 0-46.328125-17.671875-64 0-46.328125 17.671875-64 0-46.328125-17.671875-64 0-46.328125 17.671875-64 0-46.328125-17.671875-64 0l-22.851562 22.851563c-5.859376 5.855468-9.148438 13.804687-9.148438 22.089844v157.628906c0 42.304687 34.292969 76.601562 76.597656 76.601562h358.804688c42.300781 0 76.597656-34.296875 76.597656-76.601562v-157.628906c0-8.285157-3.289062-16.234376-9.148438-22.089844zm0 0" fill="#a3defe"/><path d="m168.074219 99.546875c-2.867188 1.789063-5.582031 3.917969-8.074219 6.410156-17.671875 17.671875-46.328125 17.671875-64 0s-46.328125-17.671875-64 0l-22.851562 22.851563c-5.859376 5.855468-9.148438 13.804687-9.148438 22.089844v157.632812c0 42.300781 34.292969 76.597656 76.597656 76.597656h181.332032c-84.800782-59.003906-102.203126-192.449218-89.855469-285.582031zm0 0" fill="#7acefa"/><path d="m176.746094 190.945312c-5.378906.898438-11.101563-.277343-15.859375-3.742187-34.226563-24.925781-57.042969-75.644531-59.542969-132.359375-.511719-11.609375 8.488281-21.441406 20.09375-21.949219 11.613281-.511719 21.4375 8.484375 21.949219 20.097657 1.921875 43.558593 18.515625 82.886718 42.273437 100.191406 9.394532 6.839844 11.464844 20 4.625 29.394531-3.378906 4.636719-8.296875 7.492187-13.539062 8.367187zm0 0" fill="#ffbf9e"/><path d="m272.375 344.980469c44.910156-44.910157 44.910156-117.722657 0-162.628907-44.910156-44.910156-117.722656-44.910156-162.628906 0-44.910156 44.90625-31.460938 104.273438 13.445312 149.179688 44.910156 44.910156 104.273438 58.359375 149.183594 13.449219zm0 0" fill="#ffd4be"/><path d="m109.746094 182.351562c-44.910156 44.90625-31.460938 104.273438 13.445312 149.179688 44.910156 44.910156 104.273438 58.359375 149.183594 13.449219zm0 0" fill="#e26e7e"/><path d="m419.4375 227.425781c-53.058594 53.058594-133.402344 47.378907-186.460938-5.679687-53.054687-53.058594-58.738281-133.402344-5.679687-186.460938s129.410156-43.382812 182.46875 9.671875c53.058594 53.0625 62.730469 129.414063 9.671875 182.46875zm0 0" fill="#ffd4be"/><path d="m318.136719 263.769531c-94.304688-62.0625-92.179688-178.964843-68.132813-246.613281-7.917968 4.929688-15.527344 10.953125-22.707031 18.132812-53.058594 53.054688-47.375 133.398438 5.683594 186.457032 24.386719 24.386718 54.539062 38.757812 85.15625 42.023437zm0 0" fill="#ffbf9e"/><path d="m254.0625 71.621094c-13.148438-13.148438-32.296875-15.320313-42.765625-4.847656-10.46875 10.46875-8.300781 29.613281 4.847656 42.761718 13.148438 13.148438 32.296875 15.320313 42.765625 4.851563 10.46875-10.472657 8.300782-29.617188-4.847656-42.765625zm0 0" fill="#eda1ab"/><path d="m383.101562 200.660156c-13.148437-13.148437-32.296874-15.316406-42.765624-4.847656s-8.300782 29.617188 4.847656 42.765625c13.148437 13.148437 32.296875 15.316406 42.765625 4.847656s8.300781-29.617187-4.847657-42.765625zm0 0" fill="#eda1ab"/><g fill="#4e5660"><path d="m267.894531 93.042969c-1.921875 0-3.839843-.734375-5.304687-2.199219-2.929688-2.929688-2.929688-7.675781 0-10.605469l8.40625-8.40625c2.929687-2.929687 7.679687-2.929687 10.609375 0 2.929687 2.929688 2.929687 7.675781 0 10.605469l-8.410157 8.40625c-1.464843 1.464844-3.382812 2.199219-5.300781 2.199219zm0 0"/><path d="m369.183594 194.332031c-1.917969 0-3.835938-.730469-5.300782-2.199219-2.929687-2.925781-2.929687-7.675781 0-10.605468l8.40625-8.40625c2.929688-2.929688 7.679688-2.929688 10.605469 0 2.929688 2.929687 2.929688 7.679687 0 10.609375l-8.40625 8.40625c-1.464843 1.464843-3.386719 2.195312-5.304687 2.195312zm0 0"/><path d="m329.792969 157.46875c-8.609375 0-16.890625-3.402344-23.011719-9.523438-6.652344-6.652343-10.097656-15.855468-9.449219-25.253906.285157-4.128906 3.851563-7.246094 7.996094-6.964844 4.132813.28125 7.253906 3.863282 6.96875 7.996094-.347656 5.070313 1.507813 10.03125 5.089844 13.617188 3.585937 3.582031 8.53125 5.4375 13.617187 5.089844 4.128906-.277344 7.714844 2.835937 7.996094 6.96875.285156 4.132812-2.835938 7.710937-6.96875 7.996093-.746094.050781-1.496094.074219-2.238281.074219zm0 0"/><path d="m409.765625 44.960938c-52.042969-52.046876-126.496094-62.339844-179.398437-12.640626 20 7.835938 49.203124 12.832032 86.75 8.992188l96.296874 96.296875c-3.839843 37.546875 1.15625 66.746094 8.988282 86.75 49.699218-52.902344 39.410156-127.355469-12.636719-179.398437zm0 0"/></g><path d="m244.046875 36.773438c1.769531-6.882813 3.765625-13.453126 5.949219-19.605469-6.792969 4.234375-13.363282 9.269531-19.628906 15.152343 4.15625 1.628907 8.734374 3.125 13.679687 4.453126zm0 0" fill="#383c43"/><path d="m281.796875 3.503906c19.023437 35.875 48.558594 68.269532 74.855469 94.570313 26.296875 26.296875 58.695312 55.832031 94.570312 74.859375 11.144532-43.535156-4.796875-91.3125-41.457031-127.972656-36.660156-36.660157-84.4375-52.601563-127.96875-41.457032zm0 0" fill="#e26e7e"/><path d="m467.972656 269.917969-19.621094-19.621094c-15.175781-15.175781-39.78125-15.175781-54.957031 0s-39.78125 15.175781-54.957031 0-39.78125-15.175781-54.957031 0-39.78125 15.175781-54.957031 0c-15.175782-15.175781-39.78125-15.175781-54.957032 0-15.175781 15.175781-39.78125 15.175781-54.957031 0s-39.78125-15.175781-54.957031 0l-19.625 19.621094c-5.03125 5.03125-7.855469 11.855469-7.855469 18.96875v45.179687c0 28.203125 22.859375 51.0625 51.0625 51.0625h337.535156c28.199219 0 51.058594-22.859375 51.058594-51.0625v-45.179687c0-7.113281-2.824219-13.9375-7.855469-18.96875zm0 0" fill="#a3defe"/><path d="m175.039062 248.898438c-.5.453124-.992187.917968-1.476562 1.398437-15.175781 15.175781-39.78125 15.175781-54.957031 0s-39.78125-15.175781-54.957031 0l-19.621094 19.621094c-5.03125 5.03125-7.855469 11.855469-7.855469 18.972656v45.179687c0 28.199219 22.859375 51.058594 51.058594 51.058594h170.699219c-44.078126-30.671875-69.945313-81.453125-82.890626-136.230468zm0 0" fill="#7acefa"/><path d="m436.859375 285.921875c-12.148437 0-23.5625-4.730469-32.152344-13.316406-2.929687-2.929688-2.929687-7.679688.003907-10.609375 2.925781-2.929688 7.675781-2.929688 10.605468 0 5.753906 5.753906 13.402344 8.921875 21.542969 8.921875 8.136719 0 15.789063-3.167969 21.542969-8.921875 2.925781-2.929688 7.675781-2.929688 10.605468 0 2.929688 2.929687 2.929688 7.679687 0 10.609375-8.585937 8.585937-20.003906 13.316406-32.148437 13.316406zm0 0" fill="#7acefa"/><path d="m57.542969 189.21875c-9.691407 0-18.800781-3.773438-25.652344-10.625-2.929687-2.929688-2.929687-7.679688 0-10.609375 2.925781-2.925781 7.675781-2.925781 10.605469.003906 4.019531 4.015625 9.363281 6.230469 15.046875 6.230469 5.683593 0 11.027343-2.214844 15.046875-6.230469 2.929687-2.929687 7.675781-2.929687 10.605468 0 2.929688 2.925781 2.929688 7.675781 0 10.605469-6.851562 6.851562-15.964843 10.625-25.652343 10.625zm0 0" fill="#a3defe"/><path d="m313.140625 350.917969c-11.644531 0-23.285156-4.429688-32.148437-13.296875-2.929688-2.925782-2.929688-7.675782 0-10.605469 2.929687-2.929687 7.679687-2.929687 10.605468 0 11.878906 11.878906 31.207032 11.878906 43.085938 0 2.929687-2.929687 7.679687-2.929687 10.609375 0 2.929687 2.929687 2.929687 7.679687 0 10.605469-8.863281 8.867187-20.507813 13.296875-32.152344 13.296875zm0 0" fill="#7acefa"/><path d="m137.488281 327.351562c-11.644531 0-23.285156-4.433593-32.148437-13.296874-2.929688-2.929688-2.929688-7.675782 0-10.605469 2.929687-2.929688 7.675781-2.929688 10.605468 0 11.878907 11.878906 31.207032 11.878906 43.085938 0 2.929688-2.929688 7.679688-2.929688 10.605469 0 2.929687 2.929687 2.929687 7.679687 0 10.605469-8.863281 8.863281-20.503907 13.296874-32.148438 13.296874zm0 0" fill="#a3defe"/></svg>