<svg id="Flat" height="512" viewBox="0 0 64 64" width="512" xmlns="http://www.w3.org/2000/svg"><g id="Stroke_copy_2" data-name="Stroke copy 2"><path d="m60.79 44.39-17-22a1 1 0 0 0 -.79-.39 1 1 0 0 0 -.8.4l-22 29a1 1 0 0 0 .2 1.4 1 1 0 0 0 .6.2 1 1 0 0 0 .8-.4l21.2-27.95 16.2 21a1 1 0 0 0 1.58-1.22z" fill="#6bbeda"/><path d="m43 21-18 32h36z" fill="#4daf4d"/><path d="m58.77 49-15.77-28 5.51 17.63a16 16 0 0 0 10.26 10.37z" fill="#7ecf7e"/><path d="m43 33-7 20h7z" fill="#2791b4"/><path d="m43 33 4 16-4 4z" fill="#9ed8ec"/><path d="m18 15a5 5 0 0 1 -3-9 7 7 0 1 0 7 7 5 5 0 0 1 -4 2z" fill="#ffe5a7"/><circle cx="7" cy="56" fill="#ffc230" r="4"/><circle cx="15" cy="56" fill="#ffc230" r="4"/><path d="m18 46a7 7 0 0 1 -14 0c0-7 7-13 7-13s7 6 7 13z" fill="#ff9b9b"/><path d="m11 53a3 3 0 0 1 -3-3c0-2.53 1.48-5.15 3-7.13 1.52 2 3 4.6 3 7.13a3 3 0 0 1 -3 3z" fill="#db6060"/><path d="m25 7h1v1a1 1 0 0 0 2 0v-1h1a1 1 0 0 0 0-2h-1v-1a1 1 0 0 0 -2 0v1h-1a1 1 0 0 0 0 2z" fill="#ffe5a7"/><path d="m32 18h1v1a1 1 0 0 0 2 0v-1h1a1 1 0 0 0 0-2h-1v-1a1 1 0 0 0 -2 0v1h-1a1 1 0 0 0 0 2z" fill="#ffe5a7"/><g fill="#ffd879"><path d="m16 54.28v1.72a1 1 0 0 1 -2 0v-1.72a2 2 0 0 0 -1 1.72 2 2 0 0 0 4 0 2 2 0 0 0 -1-1.72z"/><path d="m7 54a2 2 0 0 0 -1.72 1h1.72a1 1 0 0 1 0 2h-1.72a2 2 0 0 0 1.72 1 2 2 0 0 0 0-4z"/><path d="m17 18a7 7 0 0 1 -5.85-10.85 7 7 0 1 0 9.7 9.7 7.06 7.06 0 0 1 -3.85 1.15z"/></g></g></svg>